<svg width="480" height="362" viewBox="0 0 480 362" fill="none" xmlns="http://www.w3.org/2000/svg">
<path d="M1 17.0253C1 7.62247 8.62248 0 18.0253 0H462.475C471.877 0 479.5 7.62248 479.5 17.0253V344.09C479.5 353.493 471.877 361.115 462.475 361.115H18.0253C8.62247 361.115 1 353.493 1 344.09V17.0253Z" fill="url(#paint0_linear_5949_604)"/>
<path fill-rule="evenodd" clip-rule="evenodd" d="M462.225 1.79213H17.7753C9.36224 1.79213 2.54213 8.61224 2.54213 17.0253V344.09C2.54213 352.503 9.36224 359.323 17.7753 359.323H462.225C470.638 359.323 477.458 352.503 477.458 344.09V17.0253C477.458 8.61225 470.638 1.79213 462.225 1.79213ZM17.7753 0C8.37248 0 0.75 7.62247 0.75 17.0253V344.09C0.75 353.493 8.37247 361.115 17.7753 361.115H462.225C471.627 361.115 479.25 353.493 479.25 344.09V17.0253C479.25 7.62248 471.627 0 462.225 0H17.7753Z" fill="url(#paint1_linear_5949_604)"/>
<path d="M11.5039 33.6028C11.5039 23.4576 19.7282 15.2334 29.8733 15.2334H442.96C453.105 15.2334 461.33 23.4576 461.33 33.6028V33.6028C461.33 43.7479 453.105 51.9722 442.96 51.9722H29.8733C19.7281 51.9722 11.5039 43.7479 11.5039 33.6028V33.6028Z" fill="url(#paint2_linear_5949_604)"/>
<path d="M44.3428 33.8045C44.3428 37.1979 41.5912 39.9488 38.1968 39.9488C34.8024 39.9488 32.0508 37.1979 32.0508 33.8045C32.0508 30.4111 34.8024 27.6602 38.1968 27.6602C41.5912 27.6602 44.3428 30.4111 44.3428 33.8045Z" fill="#FED280"/>
<path d="M65.8545 33.8045C65.8545 37.1979 63.1029 39.9488 59.7085 39.9488C56.3142 39.9488 53.5625 37.1979 53.5625 33.8045C53.5625 30.4111 56.3142 27.6602 59.7085 27.6602C63.1029 27.6602 65.8545 30.4111 65.8545 33.8045Z" fill="#8CFEE3" fill-opacity="0.9"/>
<path d="M87.3682 33.8045C87.3682 37.1979 84.6165 39.9488 81.2222 39.9488C77.8278 39.9488 75.0762 37.1979 75.0762 33.8045C75.0762 30.4111 77.8278 27.6602 81.2222 27.6602C84.6165 27.6602 87.3682 30.4111 87.3682 33.8045Z" fill="#FF8DA9" fill-opacity="0.9"/>
<path fill-rule="evenodd" clip-rule="evenodd" d="M113.43 153.228C113.43 152.609 113.931 152.107 114.55 152.107H248.08V178.486C248.08 179.105 247.578 179.606 246.96 179.606C246.341 179.606 245.84 179.105 245.84 178.486V154.348H114.55C113.931 154.348 113.43 153.846 113.43 153.228Z" fill="url(#paint3_linear_5949_604)"/>
<path fill-rule="evenodd" clip-rule="evenodd" d="M388.075 255.379C388.075 255.998 387.574 256.499 386.955 256.499L246.256 256.499L246.256 231.121C246.256 230.502 246.758 230 247.376 230C247.995 230 248.497 230.502 248.497 231.121L248.497 254.259L386.955 254.259C387.574 254.259 388.075 254.76 388.075 255.379Z" fill="url(#paint4_linear_5949_604)"/>
<path d="M169.211 153.227C169.211 158.176 165.2 162.188 160.251 162.188C155.302 162.188 151.29 158.176 151.29 153.227C151.29 148.278 155.302 144.267 160.251 144.267C165.2 144.267 169.211 148.278 169.211 153.227Z" fill="#383A68"/>
<path fill-rule="evenodd" clip-rule="evenodd" d="M160.251 160.396C164.21 160.396 167.419 157.186 167.419 153.227C167.419 149.268 164.21 146.059 160.251 146.059C156.292 146.059 153.082 149.268 153.082 153.227C153.082 157.186 156.292 160.396 160.251 160.396ZM160.251 162.188C165.2 162.188 169.211 158.176 169.211 153.227C169.211 148.278 165.2 144.267 160.251 144.267C155.302 144.267 151.29 148.278 151.29 153.227C151.29 158.176 155.302 162.188 160.251 162.188Z" fill="#63648A"/>
<path d="M364.552 255.38C364.552 260.328 360.54 264.34 355.592 264.34C350.643 264.34 346.631 260.328 346.631 255.38C346.631 250.431 350.643 246.419 355.592 246.419C360.54 246.419 364.552 250.431 364.552 255.38Z" fill="#383A68"/>
<path fill-rule="evenodd" clip-rule="evenodd" d="M355.592 262.548C359.551 262.548 362.76 259.339 362.76 255.38C362.76 251.421 359.551 248.211 355.592 248.211C351.632 248.211 348.423 251.421 348.423 255.38C348.423 259.339 351.632 262.548 355.592 262.548ZM355.592 264.34C360.54 264.34 364.552 260.328 364.552 255.38C364.552 250.431 360.54 246.419 355.592 246.419C350.643 246.419 346.631 250.431 346.631 255.38C346.631 260.328 350.643 264.34 355.592 264.34Z" fill="#63648A"/>
<defs>
<linearGradient id="paint0_linear_5949_604" x1="240.25" y1="0" x2="363.61" y2="524.825" gradientUnits="userSpaceOnUse">
<stop stop-color="white" stop-opacity="0.16"/>
<stop offset="1" stop-color="#C4C4C4" stop-opacity="0"/>
</linearGradient>
<linearGradient id="paint1_linear_5949_604" x1="240" y1="1.34022e-05" x2="578.888" y2="244.481" gradientUnits="userSpaceOnUse">
<stop stop-color="white" stop-opacity="0.17"/>
<stop offset="1" stop-opacity="0"/>
</linearGradient>
<linearGradient id="paint2_linear_5949_604" x1="236.417" y1="15.2334" x2="304.39" y2="224.788" gradientUnits="userSpaceOnUse">
<stop stop-color="white" stop-opacity="0.15"/>
<stop offset="1" stop-color="#C4C4C4" stop-opacity="0"/>
</linearGradient>
<linearGradient id="paint3_linear_5949_604" x1="235.831" y1="147.041" x2="56.1168" y2="201.28" gradientUnits="userSpaceOnUse">
<stop stop-color="#767799"/>
<stop offset="1" stop-color="#767799" stop-opacity="0"/>
</linearGradient>
<linearGradient id="paint4_linear_5949_604" x1="259.205" y1="261.565" x2="446.789" y2="201.931" gradientUnits="userSpaceOnUse">
<stop stop-color="#767799"/>
<stop offset="1" stop-color="#767799" stop-opacity="0"/>
</linearGradient>
</defs>
</svg>
