<svg width="43" height="47" viewBox="0 0 43 47" fill="none" xmlns="http://www.w3.org/2000/svg">
<g filter="url(#filter0_d_5949_603)">
<path fill-rule="evenodd" clip-rule="evenodd" d="M19.0555 14.5544C19.0502 14.7706 19.0887 14.8746 19.2871 14.8748H24.0598C24.924 14.939 25.6974 15.1546 26.3513 15.5746C26.8053 15.8663 27.1365 16.2127 27.3865 16.5967C27.8301 17.2784 28.0808 18.2613 28.2165 19.0549C28.275 19.398 28.3025 19.7188 28.2399 19.8675C28.2103 19.9375 28.1665 19.9848 28.1069 20.0072C27.7788 20.1317 27.4319 19.7039 27.247 19.4991C26.3669 18.5243 25.0876 18.121 23.5792 18.0453H19.216C19.0598 18.0709 19.0044 18.1802 19.02 18.3489V19.5124C19.0109 19.8991 18.805 20.0307 18.3968 19.9002L14.6398 17.1084L14.2703 16.8337L14.1758 16.7635C13.8738 16.5063 13.998 16.2722 14.269 16.07L14.5558 15.8563L18.1559 13.1728C18.5952 12.8452 19.0555 12.7575 19.0555 13.4636V14.5544ZM23.2364 26.4274C23.2418 26.211 23.2034 26.107 23.005 26.1068H18.2323C17.3681 26.0426 16.5947 25.8272 15.9408 25.407C15.484 25.1135 15.1514 24.7647 14.901 24.378C14.4479 23.678 14.1525 22.5386 14.0441 21.7208C14.0095 21.46 14.0024 21.2326 14.0523 21.1143C14.0818 21.0442 14.1258 20.9969 14.1852 20.9744C14.5133 20.8499 14.8602 21.2777 15.0451 21.4825C15.9254 22.4573 17.2047 22.8606 18.7131 22.9363H23.0763C23.2323 22.9109 23.2878 22.8014 23.2722 22.6327V21.4692C23.2813 21.0825 23.4872 20.9509 23.8955 21.0814L27.6523 23.8732L28.0219 24.1479L28.1164 24.2181C28.4184 24.4753 28.2942 24.7094 28.0231 24.9116L27.7364 25.1253L24.1365 27.8088C23.6971 28.1364 23.2367 28.2241 23.2367 27.518L23.2364 26.4274Z" fill="#88F1DB"/>
</g>
<circle cx="21" cy="20" r="19" stroke="white" stroke-width="2"/>
<defs>
<filter id="filter0_d_5949_603" x="0" y="2.92676" width="42.292" height="43.1279" filterUnits="userSpaceOnUse" color-interpolation-filters="sRGB">
<feFlood flood-opacity="0" result="BackgroundImageFix"/>
<feColorMatrix in="SourceAlpha" type="matrix" values="0 0 0 0 0 0 0 0 0 0 0 0 0 0 0 0 0 0 127 0" result="hardAlpha"/>
<feOffset dy="4"/>
<feGaussianBlur stdDeviation="7"/>
<feComposite in2="hardAlpha" operator="out"/>
<feColorMatrix type="matrix" values="0 0 0 0 0.533333 0 0 0 0 0.945098 0 0 0 0 0.858824 0 0 0 1 0"/>
<feBlend mode="normal" in2="BackgroundImageFix" result="effect1_dropShadow_5949_603"/>
<feBlend mode="normal" in="SourceGraphic" in2="effect1_dropShadow_5949_603" result="shape"/>
</filter>
</defs>
</svg>
