<svg width="194" height="133" viewBox="0 0 194 133" fill="none" xmlns="http://www.w3.org/2000/svg">
<path d="M0 10.7528C0 4.8142 4.8142 0 10.7528 0H182.798C188.736 0 193.551 4.8142 193.551 10.7528V121.865C193.551 127.804 188.736 132.618 182.798 132.618H10.7528C4.8142 132.618 0 127.804 0 121.865V10.7528Z" fill="url(#paint0_linear_5949_599)"/>
<path fill-rule="evenodd" clip-rule="evenodd" d="M182.798 1.79213H10.7528C5.80397 1.79213 1.79213 5.80397 1.79213 10.7528V121.865C1.79213 126.814 5.80397 130.826 10.7528 130.826H182.798C187.747 130.826 191.758 126.814 191.758 121.865V10.7528C191.758 5.80397 187.747 1.79213 182.798 1.79213ZM10.7528 0C4.8142 0 0 4.8142 0 10.7528V121.865C0 127.804 4.8142 132.618 10.7528 132.618H182.798C188.736 132.618 193.551 127.804 193.551 121.865V10.7528C193.551 4.8142 188.736 0 182.798 0H10.7528Z" fill="url(#paint1_linear_5949_599)"/>
<path d="M21.5059 34.9467C21.5059 31.9774 23.913 29.5703 26.8823 29.5703H77.062C80.0313 29.5703 82.4384 31.9774 82.4384 34.9467V92.295C82.4384 95.2643 80.0313 97.6714 77.062 97.6714H26.8823C23.913 97.6714 21.5059 95.2643 21.5059 92.295V34.9467Z" fill="white" fill-opacity="0.17"/>
<path d="M94.0859 34.4987C94.0859 31.7768 96.2924 29.5703 99.0143 29.5703H162.635C165.357 29.5703 167.563 31.7768 167.563 34.4987V34.4987C167.563 37.2205 165.357 39.4271 162.635 39.4271H99.0143C96.2924 39.4271 94.0859 37.2205 94.0859 34.4987V34.4987Z" fill="white" fill-opacity="0.6"/>
<path d="M94.0859 53.3161C94.0859 50.5942 96.2924 48.3877 99.0143 48.3877H162.635C165.357 48.3877 167.563 50.5942 167.563 53.3161V53.3161C167.563 56.0379 165.357 58.2444 162.635 58.2444H99.0143C96.2924 58.2444 94.0859 56.0379 94.0859 53.3161V53.3161Z" fill="white" fill-opacity="0.26"/>
<path d="M94.0859 84.6778C94.0859 75.5225 101.508 68.1006 110.663 68.1006H111.559C120.715 68.1006 128.136 75.5225 128.136 84.6778V84.6778C128.136 93.8332 120.715 101.255 111.559 101.255H110.663C101.508 101.255 94.0859 93.8332 94.0859 84.6778V84.6778Z" fill="#767799"/>
<path d="M48.195 62.4685C46.5054 60.2645 43.139 60.4108 41.6469 62.7531L29.7979 81.3538C28.1017 84.0166 30.0144 87.5028 33.1716 87.5028H70.9104C74.1764 87.5028 76.0658 83.8003 74.1494 81.1557L67.458 71.9219C65.977 69.878 62.9963 69.7 61.2825 71.553L61.1577 71.688C59.4737 73.5088 56.5556 73.374 55.0466 71.4057L48.195 62.4685Z" fill="white"/>
<path d="M71.479 49.5237C71.479 52.7404 68.8713 55.3481 65.6545 55.3481C62.4378 55.3481 59.8301 52.7404 59.8301 49.5237C59.8301 46.3069 62.4378 43.6992 65.6545 43.6992C68.8713 43.6992 71.479 46.3069 71.479 49.5237Z" fill="#C4C5DC"/>
<path d="M134.41 74.8243C134.41 71.1109 137.421 68.1006 141.136 68.1006H160.472C164.186 68.1006 167.197 71.1109 167.197 74.8243V94.155C167.197 97.8684 164.186 100.879 160.472 100.879H141.136C137.421 100.879 134.41 97.8684 134.41 94.155V74.8243Z" fill="#767799"/>
<path fill-rule="evenodd" clip-rule="evenodd" d="M154.065 93.8905H148.007V91.3691H154.065V93.8905Z" fill="white"/>
<path fill-rule="evenodd" clip-rule="evenodd" d="M142.396 76.9258H159.21V80.9819H156.688V79.4472H144.919V80.9819H142.396V76.9258Z" fill="white"/>
<path fill-rule="evenodd" clip-rule="evenodd" d="M149.699 92.7713L149.854 78.3281L152.376 78.3552L152.22 92.7984L149.699 92.7713Z" fill="white"/>
<defs>
<linearGradient id="paint0_linear_5949_599" x1="41.8266" y1="35.6104" x2="278.936" y2="344.324" gradientUnits="userSpaceOnUse">
<stop stop-color="#40416E"/>
<stop offset="1" stop-color="#5A5B8B"/>
</linearGradient>
<linearGradient id="paint1_linear_5949_599" x1="96.7753" y1="2.458e-06" x2="179.171" y2="337.326" gradientUnits="userSpaceOnUse">
<stop stop-color="white" stop-opacity="0.17"/>
<stop offset="1" stop-opacity="0"/>
</linearGradient>
</defs>
</svg>
