<svg width="33" height="33" viewBox="0 0 33 33" fill="none" xmlns="http://www.w3.org/2000/svg">
<path d="M0 6.72371C0 3.01031 3.01113 0 6.72555 0H26.0615C29.7759 0 32.787 3.01031 32.787 6.72371V26.0544C32.787 29.7678 29.7759 32.7781 26.0615 32.7781H6.72555C3.01113 32.7781 0 29.7678 0 26.0544V6.72371Z" fill="#FFC04A"/>
<path d="M8.4082 15.541C9.76832 15.2877 10.4484 14.5878 10.4484 13.4414C10.4484 12.9348 10.3817 12.0683 10.2484 10.8419C10.115 9.53546 10.0483 8.58897 10.0483 8.00241C10.0483 7.04259 10.315 6.30939 10.8484 5.80282C11.3951 5.29625 12.1219 5.04297 13.0286 5.04297H14.1887V6.62267H13.3686C12.8486 6.62267 12.4619 6.74265 12.2085 6.9826C11.9552 7.20923 11.8285 7.58915 11.8285 8.12239C11.8285 8.50898 11.8552 8.9889 11.9085 9.56212C11.9618 10.122 11.9952 10.5019 12.0085 10.7019C12.1419 11.9817 12.2085 12.9148 12.2085 13.5014C12.2085 14.2079 12.0285 14.8011 11.6685 15.2811C11.3218 15.7476 10.7817 16.0609 10.0483 16.2209V16.2609C10.7817 16.4208 11.3218 16.7408 11.6685 17.2207C12.0285 17.7006 12.2085 18.2938 12.2085 19.0004C12.2085 19.5869 12.1419 20.5201 12.0085 21.7998C11.9952 21.9998 11.9618 22.3864 11.9085 22.9596C11.8552 23.5195 11.8285 23.9928 11.8285 24.3794C11.8285 24.9126 11.9552 25.2925 12.2085 25.5191C12.4619 25.7591 12.8486 25.8791 13.3686 25.8791H14.1887V27.4588H13.0286C12.1219 27.4588 11.3951 27.2055 10.8484 26.6989C10.315 26.1923 10.0483 25.4591 10.0483 24.4993C10.0483 23.9128 10.115 22.9663 10.2484 21.6599C10.3817 20.4334 10.4484 19.5669 10.4484 19.0603C10.4484 17.9139 9.76832 17.214 8.4082 16.9607V15.541Z" fill="#1C1E53"/>
<path d="M24.6242 16.9607C23.2641 17.214 22.5841 17.9139 22.5841 19.0603C22.5841 19.5669 22.6507 20.4334 22.7841 21.6599C22.9174 22.9663 22.9841 23.9128 22.9841 24.4993C22.9841 25.4592 22.7107 26.1923 22.164 26.6989C21.6307 27.2055 20.9106 27.4588 20.0038 27.4588H18.8438V25.8791H19.6638C20.1839 25.8791 20.5706 25.7591 20.8239 25.5191C21.0773 25.2925 21.204 24.9126 21.204 24.3794C21.204 23.9928 21.1773 23.5195 21.1239 22.9596C21.0706 22.3864 21.0373 21.9998 21.0239 21.7998C20.8906 20.5201 20.8239 19.5869 20.8239 19.0004C20.8239 18.2938 20.9973 17.7006 21.344 17.2207C21.704 16.7408 22.2507 16.4208 22.9841 16.2609V16.2209C22.2507 16.0609 21.704 15.7476 21.344 15.2811C20.9973 14.8011 20.8239 14.2079 20.8239 13.5014C20.8239 12.9148 20.8906 11.9817 21.0239 10.7019C21.0373 10.5019 21.0706 10.122 21.1239 9.56212C21.1773 8.9889 21.204 8.50899 21.204 8.12239C21.204 7.58916 21.0773 7.20923 20.8239 6.98261C20.5706 6.74265 20.1839 6.62267 19.6638 6.62267H18.8438V5.04297H20.0038C20.9106 5.04297 21.6307 5.29625 22.164 5.80283C22.7107 6.3094 22.9841 7.04259 22.9841 8.00242C22.9841 8.58897 22.9174 9.53546 22.7841 10.8419C22.6507 12.0683 22.5841 12.9348 22.5841 13.4414C22.5841 14.5878 23.2641 15.2877 24.6242 15.541V16.9607Z" fill="#1C1E53"/>
</svg>
