<svg width="37" height="37" viewBox="0 0 37 37" fill="none" xmlns="http://www.w3.org/2000/svg">
<circle opacity="0.4" cx="18.5" cy="18.9619" r="18" fill="#60E1CB"/>
<g clip-path="url(#clip0_2549_385)">
<path d="M13.4399 11.9619C13.4397 12.4924 13.2287 13.001 12.8534 13.3759C12.4782 13.7507 11.9694 13.9612 11.4389 13.9609C10.9085 13.9607 10.3999 13.7497 10.025 13.3744C9.65014 12.9992 9.43968 12.4904 9.43994 11.9599C9.44021 11.4295 9.65117 10.9209 10.0264 10.546C10.4017 10.1711 10.9105 9.96067 11.4409 9.96094C11.9714 9.9612 12.48 10.1722 12.8549 10.5474C13.2297 10.9227 13.4402 11.4315 13.4399 11.9619V11.9619ZM13.4999 15.4419H9.49994V27.9619H13.4999V15.4419ZM19.8199 15.4419H15.8399V27.9619H19.7799V21.3919C19.7799 17.7319 24.5499 17.3919 24.5499 21.3919V27.9619H28.4999V20.0319C28.4999 13.8619 21.4399 14.0919 19.7799 17.1219L19.8199 15.4419V15.4419Z" fill="#292525"/>
</g>
<defs>
<clipPath id="clip0_2549_385">
<rect width="24" height="24" fill="white" transform="translate(6.5 6.96191)"/>
</clipPath>
</defs>
</svg>
