<svg width="29" height="29" viewBox="0 0 29 29" fill="none" xmlns="http://www.w3.org/2000/svg">
<path d="M28.2251 14.8237C26.4021 14.8231 24.5969 15.1816 22.9125 15.8788C21.228 16.5761 19.6974 17.5983 18.4079 18.8873C17.1184 20.1762 16.0954 21.7065 15.3972 23.3909C14.699 25.0753 14.3393 26.8808 14.3387 28.7042C14.3387 25.0216 12.8762 21.4899 10.2729 18.8859C7.66955 16.2819 4.13869 14.819 0.457031 14.819C4.13869 14.819 7.66955 13.3561 10.2729 10.7521C12.8762 8.14816 14.3387 4.61642 14.3387 0.933838C14.3387 4.61642 15.8013 8.14816 18.4046 10.7521C21.0079 13.3561 24.5388 14.819 28.2204 14.819L28.2251 14.8237Z" fill="#555185"/>
</svg>
